<svg width="20" height="20" viewBox="0 0 16 16" fill="none" xmlns="http://www.w3.org/2000/svg">
<path d="M2.16667 15.5C1.70833 15.5 1.31583 15.3367 0.989168 15.01C0.662501 14.6833 0.499446 14.2911 0.500001 13.8333V2.16667C0.500001 1.70833 0.663335 1.31583 0.990001 0.989168C1.31667 0.662501 1.70889 0.499446 2.16667 0.500001H5.5C5.95833 0.500001 6.35083 0.663335 6.6775 0.990001C7.00417 1.31667 7.16722 1.70889 7.16667 2.16667V13.8333C7.16667 14.2917 7.00333 14.6842 6.67667 15.0108C6.35 15.3375 5.95778 15.5006 5.5 15.5H2.16667ZM10.5 6.33333C10.0417 6.33333 9.64917 6.17 9.3225 5.84333C8.99583 5.51667 8.83278 5.12445 8.83333 4.66667V2.16667C8.83333 1.70833 8.99667 1.31583 9.32333 0.989168C9.65 0.662501 10.0422 0.499446 10.5 0.500001H13.8333C14.2917 0.500001 14.6842 0.663335 15.0108 0.990001C15.3375 1.31667 15.5006 1.70889 15.5 2.16667V4.66667C15.5 5.125 15.3367 5.5175 15.01 5.84417C14.6833 6.17084 14.2911 6.33389 13.8333 6.33333H10.5ZM10.5 15.5C10.0417 15.5 9.64917 15.3367 9.3225 15.01C8.99583 14.6833 8.83278 14.2911 8.83333 13.8333V9.66667C8.83333 9.20833 8.99667 8.81583 9.32333 8.48917C9.65 8.1625 10.0422 7.99945 10.5 8H13.8333C14.2917 8 14.6842 8.16333 15.0108 8.49C15.3375 8.81667 15.5006 9.20889 15.5 9.66667V13.8333C15.5 14.2917 15.3367 14.6842 15.01 15.0108C14.6833 15.3375 14.2911 15.5006 13.8333 15.5H10.5Z" fill="#274B6F" fill-opacity="0.75"/>
</svg>
