<svg width="22" height="22" viewBox="0 0 22 22" fill="none" xmlns="http://www.w3.org/2000/svg">
<path d="M11 12.8333C11.1813 12.8333 11.3585 12.7796 11.5093 12.6788C11.66 12.5781 11.7775 12.435 11.8469 12.2675C11.9163 12.1 11.9344 11.9157 11.899 11.7378C11.8637 11.56 11.7764 11.3967 11.6482 11.2685C11.52 11.1403 11.3566 11.053 11.1788 11.0176C11.001 10.9822 10.8167 11.0004 10.6492 11.0698C10.4817 11.1392 10.3385 11.2566 10.2378 11.4074C10.1371 11.5581 10.0833 11.7354 10.0833 11.9167C10.0833 12.1598 10.1799 12.3929 10.3518 12.5648C10.5237 12.7368 10.7569 12.8333 11 12.8333ZM15.5833 12.8333C15.7646 12.8333 15.9418 12.7796 16.0926 12.6788C16.2433 12.5781 16.3608 12.435 16.4302 12.2675C16.4996 12.1 16.5177 11.9157 16.4824 11.7378C16.447 11.56 16.3597 11.3967 16.2315 11.2685C16.1033 11.1403 15.94 11.053 15.7621 11.0176C15.5843 10.9822 15.4 11.0004 15.2325 11.0698C15.065 11.1392 14.9219 11.2566 14.8211 11.4074C14.7204 11.5581 14.6666 11.7354 14.6666 11.9167C14.6666 12.1598 14.7632 12.3929 14.9351 12.5648C15.107 12.7368 15.3402 12.8333 15.5833 12.8333ZM11 16.5C11.1813 16.5 11.3585 16.4462 11.5093 16.3455C11.66 16.2448 11.7775 16.1016 11.8469 15.9341C11.9163 15.7666 11.9344 15.5823 11.899 15.4045C11.8637 15.2267 11.7764 15.0634 11.6482 14.9352C11.52 14.807 11.3566 14.7197 11.1788 14.6843C11.001 14.6489 10.8167 14.6671 10.6492 14.7364C10.4817 14.8058 10.3385 14.9233 10.2378 15.0741C10.1371 15.2248 10.0833 15.402 10.0833 15.5833C10.0833 15.8264 10.1799 16.0596 10.3518 16.2315C10.5237 16.4034 10.7569 16.5 11 16.5ZM15.5833 16.5C15.7646 16.5 15.9418 16.4462 16.0926 16.3455C16.2433 16.2448 16.3608 16.1016 16.4302 15.9341C16.4996 15.7666 16.5177 15.5823 16.4824 15.4045C16.447 15.2267 16.3597 15.0634 16.2315 14.9352C16.1033 14.807 15.94 14.7197 15.7621 14.6843C15.5843 14.6489 15.4 14.6671 15.2325 14.7364C15.065 14.8058 14.9219 14.9233 14.8211 15.0741C14.7204 15.2248 14.6666 15.402 14.6666 15.5833C14.6666 15.8264 14.7632 16.0596 14.9351 16.2315C15.107 16.4034 15.3402 16.5 15.5833 16.5ZM6.41665 12.8333C6.59795 12.8333 6.77517 12.7796 6.92592 12.6788C7.07666 12.5781 7.19416 12.435 7.26354 12.2675C7.33292 12.1 7.35107 11.9157 7.3157 11.7378C7.28033 11.56 7.19303 11.3967 7.06483 11.2685C6.93663 11.1403 6.77329 11.053 6.59548 11.0176C6.41766 10.9822 6.23335 11.0004 6.06585 11.0698C5.89835 11.1392 5.75519 11.2566 5.65447 11.4074C5.55374 11.5581 5.49998 11.7354 5.49998 11.9167C5.49998 12.1598 5.59656 12.3929 5.76847 12.5648C5.94037 12.7368 6.17353 12.8333 6.41665 12.8333ZM17.4166 3.66667H16.5V2.75C16.5 2.50689 16.4034 2.27373 16.2315 2.10182C16.0596 1.92991 15.8264 1.83333 15.5833 1.83333C15.3402 1.83333 15.107 1.92991 14.9351 2.10182C14.7632 2.27373 14.6666 2.50689 14.6666 2.75V3.66667H7.33331V2.75C7.33331 2.50689 7.23674 2.27373 7.06483 2.10182C6.89292 1.92991 6.65976 1.83333 6.41665 1.83333C6.17353 1.83333 5.94037 1.92991 5.76847 2.10182C5.59656 2.27373 5.49998 2.50689 5.49998 2.75V3.66667H4.58331C3.85397 3.66667 3.15449 3.9564 2.63877 4.47212C2.12304 4.98785 1.83331 5.68732 1.83331 6.41667V17.4167C1.83331 18.146 2.12304 18.8455 2.63877 19.3612C3.15449 19.8769 3.85397 20.1667 4.58331 20.1667H17.4166C18.146 20.1667 18.8455 19.8769 19.3612 19.3612C19.8769 18.8455 20.1666 18.146 20.1666 17.4167V6.41667C20.1666 5.68732 19.8769 4.98785 19.3612 4.47212C18.8455 3.9564 18.146 3.66667 17.4166 3.66667ZM18.3333 17.4167C18.3333 17.6598 18.2367 17.8929 18.0648 18.0648C17.8929 18.2368 17.6598 18.3333 17.4166 18.3333H4.58331C4.3402 18.3333 4.10704 18.2368 3.93513 18.0648C3.76322 17.8929 3.66665 17.6598 3.66665 17.4167V9.16667H18.3333V17.4167ZM18.3333 7.33333H3.66665V6.41667C3.66665 6.17355 3.76322 5.94039 3.93513 5.76849C4.10704 5.59658 4.3402 5.5 4.58331 5.5H17.4166C17.6598 5.5 17.8929 5.59658 18.0648 5.76849C18.2367 5.94039 18.3333 6.17355 18.3333 6.41667V7.33333ZM6.41665 16.5C6.59795 16.5 6.77517 16.4462 6.92592 16.3455C7.07666 16.2448 7.19416 16.1016 7.26354 15.9341C7.33292 15.7666 7.35107 15.5823 7.3157 15.4045C7.28033 15.2267 7.19303 15.0634 7.06483 14.9352C6.93663 14.807 6.77329 14.7197 6.59548 14.6843C6.41766 14.6489 6.23335 14.6671 6.06585 14.7364C5.89835 14.8058 5.75519 14.9233 5.65447 15.0741C5.55374 15.2248 5.49998 15.402 5.49998 15.5833C5.49998 15.8264 5.59656 16.0596 5.76847 16.2315C5.94037 16.4034 6.17353 16.5 6.41665 16.5Z" fill="#274B6F" fill-opacity="0.75"/>
</svg>
