<svg width="22" height="22" viewBox="0 0 20 20" fill="none" xmlns="http://www.w3.org/2000/svg">
<path d="M10.0002 11.8333C10.1815 11.8333 10.3587 11.7796 10.5094 11.6788C10.6602 11.5781 10.7777 11.435 10.8471 11.2675C10.9164 11.1 10.9346 10.9157 10.8992 10.7378C10.8638 10.56 10.7765 10.3967 10.6483 10.2685C10.5201 10.1403 10.3568 10.053 10.179 10.0176C10.0012 9.98224 9.81687 10.0004 9.64937 10.0698C9.48187 10.1392 9.33871 10.2566 9.23798 10.4074C9.13726 10.5581 9.0835 10.7354 9.0835 10.9167C9.0835 11.1598 9.18007 11.3929 9.35198 11.5648C9.52389 11.7368 9.75705 11.8333 10.0002 11.8333ZM14.5835 11.8333C14.7648 11.8333 14.942 11.7796 15.0928 11.6788C15.2435 11.5781 15.361 11.435 15.4304 11.2675C15.4998 11.1 15.5179 10.9157 15.4825 10.7378C15.4472 10.56 15.3599 10.3967 15.2317 10.2685C15.1035 10.1403 14.9401 10.053 14.7623 10.0176C14.5845 9.98224 14.4002 10.0004 14.2327 10.0698C14.0652 10.1392 13.922 10.2566 13.8213 10.4074C13.7206 10.5581 13.6668 10.7354 13.6668 10.9167C13.6668 11.1598 13.7634 11.3929 13.9353 11.5648C14.1072 11.7368 14.3404 11.8333 14.5835 11.8333ZM10.0002 15.5C10.1815 15.5 10.3587 15.4462 10.5094 15.3455C10.6602 15.2448 10.7777 15.1016 10.8471 14.9341C10.9164 14.7666 10.9346 14.5823 10.8992 14.4045C10.8638 14.2267 10.7765 14.0634 10.6483 13.9352C10.5201 13.807 10.3568 13.7197 10.179 13.6843C10.0012 13.6489 9.81687 13.6671 9.64937 13.7364C9.48187 13.8058 9.33871 13.9233 9.23798 14.0741C9.13726 14.2248 9.0835 14.402 9.0835 14.5833C9.0835 14.8264 9.18007 15.0596 9.35198 15.2315C9.52389 15.4034 9.75705 15.5 10.0002 15.5ZM14.5835 15.5C14.7648 15.5 14.942 15.4462 15.0928 15.3455C15.2435 15.2448 15.361 15.1016 15.4304 14.9341C15.4998 14.7666 15.5179 14.5823 15.4825 14.4045C15.4472 14.2267 15.3599 14.0634 15.2317 13.9352C15.1035 13.807 14.9401 13.7197 14.7623 13.6843C14.5845 13.6489 14.4002 13.6671 14.2327 13.7364C14.0652 13.8058 13.922 13.9233 13.8213 14.0741C13.7206 14.2248 13.6668 14.402 13.6668 14.5833C13.6668 14.8264 13.7634 15.0596 13.9353 15.2315C14.1072 15.4034 14.3404 15.5 14.5835 15.5ZM5.41683 11.8333C5.59813 11.8333 5.77536 11.7796 5.9261 11.6788C6.07685 11.5781 6.19434 11.435 6.26372 11.2675C6.3331 11.1 6.35125 10.9157 6.31588 10.7378C6.28051 10.56 6.19321 10.3967 6.06501 10.2685C5.93681 10.1403 5.77348 10.053 5.59566 10.0176C5.41785 9.98224 5.23354 10.0004 5.06604 10.0698C4.89854 10.1392 4.75537 10.2566 4.65465 10.4074C4.55392 10.5581 4.50016 10.7354 4.50016 10.9167C4.50016 11.1598 4.59674 11.3929 4.76865 11.5648C4.94056 11.7368 5.17371 11.8333 5.41683 11.8333ZM16.4168 2.66667H15.5002V1.75C15.5002 1.50689 15.4036 1.27373 15.2317 1.10182C15.0598 0.929911 14.8266 0.833334 14.5835 0.833334C14.3404 0.833334 14.1072 0.929911 13.9353 1.10182C13.7634 1.27373 13.6668 1.50689 13.6668 1.75V2.66667H6.3335V1.75C6.3335 1.50689 6.23692 1.27373 6.06501 1.10182C5.8931 0.929911 5.65994 0.833334 5.41683 0.833334C5.17371 0.833334 4.94056 0.929911 4.76865 1.10182C4.59674 1.27373 4.50016 1.50689 4.50016 1.75V2.66667H3.5835C2.85415 2.66667 2.15468 2.9564 1.63895 3.47212C1.12323 3.98785 0.833496 4.68732 0.833496 5.41667V16.4167C0.833496 17.146 1.12323 17.8455 1.63895 18.3612C2.15468 18.8769 2.85415 19.1667 3.5835 19.1667H16.4168C17.1462 19.1667 17.8456 18.8769 18.3614 18.3612C18.8771 17.8455 19.1668 17.146 19.1668 16.4167V5.41667C19.1668 4.68732 18.8771 3.98785 18.3614 3.47212C17.8456 2.9564 17.1462 2.66667 16.4168 2.66667ZM17.3335 16.4167C17.3335 16.6598 17.2369 16.8929 17.065 17.0648C16.8931 17.2368 16.6599 17.3333 16.4168 17.3333H3.5835C3.34038 17.3333 3.10722 17.2368 2.93532 17.0648C2.76341 16.8929 2.66683 16.6598 2.66683 16.4167V8.16667H17.3335V16.4167ZM17.3335 6.33333H2.66683V5.41667C2.66683 5.17355 2.76341 4.94039 2.93532 4.76849C3.10722 4.59658 3.34038 4.5 3.5835 4.5H16.4168C16.6599 4.5 16.8931 4.59658 17.065 4.76849C17.2369 4.94039 17.3335 5.17355 17.3335 5.41667V6.33333ZM5.41683 15.5C5.59813 15.5 5.77536 15.4462 5.9261 15.3455C6.07685 15.2448 6.19434 15.1016 6.26372 14.9341C6.3331 14.7666 6.35125 14.5823 6.31588 14.4045C6.28051 14.2267 6.19321 14.0634 6.06501 13.9352C5.93681 13.807 5.77348 13.7197 5.59566 13.6843C5.41785 13.6489 5.23354 13.6671 5.06604 13.7364C4.89854 13.8058 4.75537 13.9233 4.65465 14.0741C4.55392 14.2248 4.50016 14.402 4.50016 14.5833C4.50016 14.8264 4.59674 15.0596 4.76865 15.2315C4.94056 15.4034 5.17371 15.5 5.41683 15.5Z" fill="white"/>
</svg>
