<svg width="22" height="22" viewBox="0 0 22 22" fill="none" xmlns="http://www.w3.org/2000/svg">
<path d="M13.3375 15.1708L14.6208 13.8646L11.9166 11.1604V7.33333H10.0833V11.9167L13.3375 15.1708ZM10.0833 5.5H11.9166V3.66667H10.0833V5.5ZM16.5 11.9167H18.3333V10.0833H16.5V11.9167ZM10.0833 18.3333H11.9166V16.5H10.0833V18.3333ZM3.66665 11.9167H5.49998V10.0833H3.66665V11.9167ZM11 20.1667C9.73192 20.1667 8.54026 19.9259 7.42498 19.4443C6.3097 18.9628 5.33956 18.3098 4.51456 17.4854C3.68956 16.6604 3.03659 15.6903 2.55565 14.575C2.0747 13.4597 1.83392 12.2681 1.83331 11C1.83331 9.73195 2.07409 8.54028 2.55565 7.425C3.0372 6.30972 3.69017 5.33958 4.51456 4.51458C5.33956 3.68958 6.3097 3.03661 7.42498 2.55567C8.54026 2.07472 9.73192 1.83395 11 1.83333C12.268 1.83333 13.4597 2.07411 14.575 2.55567C15.6903 3.03722 16.6604 3.6902 17.4854 4.51458C18.3104 5.33958 18.9637 6.30972 19.4452 7.425C19.9268 8.54028 20.1673 9.73195 20.1666 11C20.1666 12.2681 19.9259 13.4597 19.4443 14.575C18.9628 15.6903 18.3098 16.6604 17.4854 17.4854C16.6604 18.3104 15.6903 18.9637 14.575 19.4452C13.4597 19.9268 12.268 20.1673 11 20.1667Z" fill="#274B6F" fill-opacity="0.75"/>
</svg>
