<svg width="22" height="22" viewBox="0 0 20 20" fill="none" xmlns="http://www.w3.org/2000/svg">
<path d="M12.3377 14.1708L13.621 12.8646L10.9168 10.1604V6.33334H9.0835V10.9167L12.3377 14.1708ZM9.0835 4.5H10.9168V2.66667H9.0835V4.5ZM15.5002 10.9167H17.3335V9.08334H15.5002V10.9167ZM9.0835 17.3333H10.9168V15.5H9.0835V17.3333ZM2.66683 10.9167H4.50016V9.08334H2.66683V10.9167ZM10.0002 19.1667C8.73211 19.1667 7.54044 18.9259 6.42516 18.4443C5.30989 17.9628 4.33975 17.3098 3.51475 16.4854C2.68975 15.6604 2.03677 14.6903 1.55583 13.575C1.07489 12.4597 0.834107 11.2681 0.833496 10C0.833496 8.73195 1.07427 7.54028 1.55583 6.425C2.03739 5.30973 2.69036 4.33959 3.51475 3.51459C4.33975 2.68959 5.30989 2.03661 6.42516 1.55567C7.54044 1.07472 8.73211 0.833947 10.0002 0.833336C11.2682 0.833336 12.4599 1.07411 13.5752 1.55567C14.6904 2.03722 15.6606 2.6902 16.4856 3.51459C17.3106 4.33959 17.9639 5.30973 18.4454 6.425C18.927 7.54028 19.1674 8.73195 19.1668 10C19.1668 11.2681 18.9261 12.4597 18.4445 13.575C17.9629 14.6903 17.31 15.6604 16.4856 16.4854C15.6606 17.3104 14.6904 17.9637 13.5752 18.4453C12.4599 18.9268 11.2682 19.1673 10.0002 19.1667Z" fill="white"/>
</svg>
