<svg width="22" height="22" viewBox="0 0 22 22" fill="none" xmlns="http://www.w3.org/2000/svg">
<path d="M3.66667 19.25C3.40695 19.25 3.18909 19.162 3.01309 18.986C2.83709 18.81 2.74939 18.5924 2.75 18.3333C2.75 18.0736 2.838 17.8558 3.014 17.6798C3.19 17.5038 3.40756 17.4161 3.66667 17.4167H4.58334V3.66667C4.58334 3.40695 4.67134 3.18909 4.84734 3.01309C5.02334 2.83709 5.24089 2.74939 5.5 2.75H11.9167C12.1764 2.75 12.3943 2.838 12.5703 3.014C12.7463 3.19 12.8339 3.40756 12.8333 3.66667H16.5C16.7597 3.66667 16.9776 3.75467 17.1536 3.93067C17.3296 4.10667 17.4173 4.32423 17.4167 4.58334V17.4167H18.3333C18.5931 17.4167 18.8109 17.5047 18.9869 17.6807C19.1629 17.8567 19.2506 18.0742 19.25 18.3333C19.25 18.5931 19.162 18.8109 18.986 18.9869C18.81 19.1629 18.5924 19.2506 18.3333 19.25H16.5C16.2403 19.25 16.0224 19.162 15.8464 18.986C15.6704 18.81 15.5827 18.5924 15.5833 18.3333V5.5H12.8333V18.3333C12.8333 18.5931 12.7453 18.8109 12.5693 18.9869C12.3933 19.1629 12.1758 19.2506 11.9167 19.25H3.66667ZM11 11C11 10.7403 10.912 10.5224 10.736 10.3464C10.56 10.1704 10.3424 10.0827 10.0833 10.0833C9.82361 10.0833 9.60575 10.1713 9.42975 10.3473C9.25375 10.5233 9.16606 10.7409 9.16667 11C9.16667 11.2597 9.25467 11.4776 9.43067 11.6536C9.60667 11.8296 9.82423 11.9173 10.0833 11.9167C10.3431 11.9167 10.5609 11.8287 10.7369 11.6527C10.9129 11.4767 11.0006 11.2591 11 11Z" fill="#274B6F" fill-opacity="0.75"/>
</svg>
