<svg width="19" height="19" viewBox="0 0 19 19" fill="none" xmlns="http://www.w3.org/2000/svg">
<path d="M1.01834 18.33C0.729809 18.33 0.487785 18.2322 0.292265 18.0367C0.0967451 17.8412 -0.000675365 17.5995 3.52365e-06 17.3117C3.52365e-06 17.0231 0.0977636 16.7811 0.293283 16.5856C0.488803 16.3901 0.730488 16.2927 1.01834 16.2933H2.03667V1.01834C2.03667 0.729809 2.13443 0.487785 2.32995 0.292265C2.52547 0.0967451 2.76715 -0.000675365 3.055 3.52365e-06H10.1833C10.4719 3.52365e-06 10.7139 0.0977636 10.9094 0.293283C11.1049 0.488803 11.2023 0.730488 11.2017 1.01834H15.275C15.5635 1.01834 15.8055 1.1161 16.0011 1.31162C16.1966 1.50714 16.294 1.74882 16.2933 2.03667V16.2933H17.3117C17.6002 16.2933 17.8422 16.3911 18.0377 16.5866C18.2333 16.7821 18.3307 17.0238 18.33 17.3117C18.33 17.6002 18.2322 17.8422 18.0367 18.0377C17.8412 18.2333 17.5995 18.3307 17.3117 18.33H15.275C14.9865 18.33 14.7444 18.2322 14.5489 18.0367C14.3534 17.8412 14.256 17.5995 14.2567 17.3117V3.055H11.2017V17.3117C11.2017 17.6002 11.1039 17.8422 10.9084 18.0377C10.7129 18.2333 10.4712 18.3307 10.1833 18.33H1.01834ZM9.165 9.165C9.165 8.87647 9.06724 8.63445 8.87172 8.43893C8.6762 8.24341 8.43452 8.14599 8.14667 8.14667C7.85814 8.14667 7.61611 8.24443 7.42059 8.43995C7.22507 8.63547 7.12765 8.87715 7.12833 9.165C7.12833 9.45353 7.22609 9.69555 7.42161 9.89107C7.61713 10.0866 7.85882 10.184 8.14667 10.1833C8.43519 10.1833 8.67722 10.0856 8.87274 9.89005C9.06826 9.69453 9.16568 9.45285 9.165 9.165Z" fill="white" fill-opacity="0.75"/>
</svg>
