<svg width="22" height="22" viewBox="0 0 22 22" fill="none" xmlns="http://www.w3.org/2000/svg">
<path d="M6.875 11C6.875 10.8177 6.94743 10.6428 7.07636 10.5139C7.2053 10.3849 7.38016 10.3125 7.5625 10.3125H13.75V5.84375C13.75 4.46875 12.2981 3.4375 11 3.4375H4.46875C3.83078 3.43818 3.21914 3.69192 2.76803 4.14303C2.31692 4.59414 2.06318 5.20578 2.0625 5.84375V16.1562C2.06318 16.7942 2.31692 17.4059 2.76803 17.857C3.21914 18.3081 3.83078 18.5618 4.46875 18.5625H11.3438C11.9817 18.5618 12.5934 18.3081 13.0445 17.857C13.4956 17.4059 13.7493 16.7942 13.75 16.1562V11.6875H7.5625C7.38016 11.6875 7.2053 11.6151 7.07636 11.4861C6.94743 11.3572 6.875 11.1823 6.875 11ZM19.736 10.514L16.2985 7.07652C16.1685 6.95303 15.9954 6.88521 15.8161 6.8875C15.6369 6.8898 15.4656 6.96203 15.3388 7.08881C15.212 7.21559 15.1398 7.38687 15.1375 7.56614C15.1352 7.74542 15.203 7.9185 15.3265 8.04848L17.5901 10.3125H13.75V11.6875H17.5901L15.3265 13.9515C15.26 14.0147 15.2068 14.0906 15.1701 14.1747C15.1333 14.2588 15.1138 14.3494 15.1126 14.4411C15.1114 14.5329 15.1286 14.624 15.1632 14.709C15.1978 14.794 15.249 14.8712 15.3139 14.9361C15.3788 15.001 15.456 15.0522 15.541 15.0868C15.626 15.1214 15.7171 15.1386 15.8089 15.1374C15.9006 15.1362 15.9912 15.1167 16.0753 15.0799C16.1594 15.0432 16.2353 14.99 16.2985 14.9235L19.736 11.486C19.8648 11.3571 19.9372 11.1823 19.9372 11C19.9372 10.8177 19.8648 10.6429 19.736 10.514Z" fill="#274B6F" fill-opacity="0.75"/>
</svg>
