<svg width="22" height="22" viewBox="0 0 16 20" fill="none" xmlns="http://www.w3.org/2000/svg">
<path d="M2.50008 19.1667C1.99592 19.1667 1.56417 18.987 1.20483 18.6277C0.845499 18.2683 0.666138 17.8369 0.66675 17.3333V2.66666C0.66675 2.1625 0.846416 1.73075 1.20575 1.37141C1.56508 1.01208 1.99653 0.832719 2.50008 0.83333H13.5001C14.0042 0.83333 14.436 1.013 14.7953 1.37233C15.1547 1.73166 15.334 2.16311 15.3334 2.66666V17.3333C15.3334 17.8375 15.1537 18.2692 14.7944 18.6286C14.4351 18.9879 14.0036 19.1673 13.5001 19.1667H2.50008ZM7.08342 9.08333L9.37508 7.70833L11.6667 9.08333V2.66666H7.08342V9.08333Z" fill="white"/>
</svg>
