<svg width="22" height="22" viewBox="0 0 22 22" fill="none" xmlns="http://www.w3.org/2000/svg">
<path d="M5.50002 20.1667C4.99586 20.1667 4.56411 19.987 4.20477 19.6277C3.84544 19.2683 3.66608 18.8369 3.66669 18.3333V3.66666C3.66669 3.1625 3.84636 2.73075 4.20569 2.37141C4.56502 2.01208 4.99647 1.83272 5.50002 1.83333H16.5C17.0042 1.83333 17.4359 2.013 17.7953 2.37233C18.1546 2.73166 18.334 3.16311 18.3334 3.66666V18.3333C18.3334 18.8375 18.1537 19.2692 17.7944 19.6286C17.435 19.9879 17.0036 20.1673 16.5 20.1667H5.50002ZM10.0834 10.0833L12.375 8.70833L14.6667 10.0833V3.66666H10.0834V10.0833Z" fill="#274B6F" fill-opacity="0.75"/>
</svg>
